# xmcd
#
# Track frame offsets: 
#        150
#        16263
#        27679
#        38929
#        50584
#        64064
#        76823
#        90239
#        102308
#        113397
#        132034
#        154006
#        166927
#
# Disc length: 2443 seconds
#
# Revision: 0
# Processed by: cddbd v1.5.2PL0 Copyright (c) Steve Scherf et al.
# Submitted via: ExactAudioCopyFreeDBPlugin 1.0
#
DISCID=9409890d
DTITLE=Various Artist - Bloodshot Records' 13 Days Of Xmas
DYEAR=2017
DGENRE=Country
TTITLE0=Murder By Death - O Holy Night
TTITLE1=Barrence Whitfield and The Savages - Papa Barrence's Christmas
TTITLE2=Jon Langford And His Men Of Gwent - Christmas Carol, Christmas
TTITLE2=Ray
TTITLE3=Ruby Boots - I Slept Through Christmas
TTITLE4=Ha Ha Tonka - The List
TTITLE5=James Elkington - Christmas Is Now Drawing Near At Hand
TTITLE6=Dex Romweber Duo - Dark Christmas
TTITLE7=Kelly Hogan - Blue Snowfall
TTITLE8=Devil In A Woodpile - The Pagans Had It Right
TTITLE9=Zach Schmidt - I'm Drunk Again This Christmas
TTITLE10=All Our Exes Live In Texas - How To Make Gravy
TTITLE11=Ron Gallo - White Christmas
TTITLE12=The Yawpers - Christmas In Oblivion
EXTD=
EXTT0=
EXTT1=
EXTT2=
EXTT3=
EXTT4=
EXTT5=
EXTT6=
EXTT7=
EXTT8=
EXTT9=
EXTT10=
EXTT11=
EXTT12=
PLAYORDER=
